# xmcd
#
# Track frame offsets:
# 150
# 20297
# 45795
# 62545
# 77805
# 101732
# 123877
# 143277
# 164160
# 192615
# 209127
# 257452
# 283050
# 297917
#
# Disc length: 4225 seconds
#
#
# Revision: 1
# Processed by: cddbd v1.5.1PL2 Copyright (c) Steve Scherf et al.
# Submitted via: FreeRIP 2.944 
#
DISCID=c9107f0e
DTITLE=Mike and The Mellotones - More Value For Money
DYEAR=1997
DGENRE=Bluesrock
TTITLE0=Don't Raise Their Kids No More
TTITLE1=How Long
TTITLE2=Things I'd Do For You
TTITLE3=Sen-Sa-Shun
TTITLE4=Don't Put Me On Hold
TTITLE5=Cold Hands
TTITLE6=Mellotone Groove
TTITLE7=Things That Might Have Been
TTITLE8=Snobound
TTITLE9=Too Much Too Fast
TTITLE10=Blues Is My Religion
TTITLE11=Leave Well Enough Alone
TTITLE12=Honest I Do
TTITLE13=Nicky
EXTD=
EXTT0=
EXTT1=
EXTT2=
EXTT3=
EXTT4=
EXTT5=
EXTT6=
EXTT7=
EXTT8=
EXTT9=
EXTT10=
EXTT11=
EXTT12=
EXTT13=
PLAYORDER=
